<svg width="100" height="100" viewBox="0 0 100 100" fill="none" xmlns="http://www.w3.org/2000/svg">
<path d="M22.5858 73.2267C23.3668 74.0078 24.6332 74.0078 25.4142 73.2267L38.1421 60.4988C38.9232 59.7177 38.9232 58.4514 38.1421 57.6704C37.3611 56.8893 36.0948 56.8893 35.3137 57.6704L24 68.9841L12.6863 57.6704C11.9052 56.8893 10.6389 56.8893 9.85786 57.6704C9.07682 58.4514 9.07682 59.7177 9.85786 60.4988L22.5858 73.2267ZM25.4142 27.5885C24.6332 26.8074 23.3668 26.8074 22.5858 27.5885L9.85787 40.3164C9.07682 41.0974 9.07682 42.3638 9.85787 43.1448C10.6389 43.9259 11.9052 43.9259 12.6863 43.1448L24 31.8311L35.3137 43.1448C36.0948 43.9259 37.3611 43.9259 38.1421 43.1448C38.9232 42.3638 38.9232 41.0974 38.1421 40.3164L25.4142 27.5885ZM24 71.8125L26 71.8125L26 29.0027L24 29.0027L22 29.0027L22 71.8125L24 71.8125Z" fill="black"/>
<path d="M84.9863 29L45.4341 29" stroke="black" stroke-width="4" stroke-linecap="round"/>
<path d="M84.9863 43.2695H45.4341" stroke="black" stroke-width="4" stroke-linecap="round"/>
<path d="M84.9863 57.543H45.4341" stroke="black" stroke-width="4" stroke-linecap="round"/>
<path d="M84.9863 71.8125H45.4341" stroke="black" stroke-width="4" stroke-linecap="round"/>
</svg>
