<svg width="100" height="100" viewBox="0 0 100 100" fill="none" xmlns="http://www.w3.org/2000/svg">
<path d="M46.577 17.3599H53.4376L52.5204 33.6633H47.4884L46.577 17.3599ZM46.9509 35.9378H53.0306V41.6475H46.9509V35.9378ZM22.0908 7.64062V81.6406L33.5803 73.7168L41.7592 79.8938L50.092 73.6623L57.2389 79.296L65.708 73.6175L77.9082 81.5121V7.64062H22.0908ZM74.0252 74.3633L65.6827 68.9633L57.4356 74.4938L50.166 68.7627L41.7807 75.0332L33.6874 68.9243L32.5307 69.7227L25.9856 74.2348V11.5354H74.0252V74.3633ZM67.5697 56.3229H32.4411V60.2176H67.5697V56.3229ZM67.5697 47.365H32.4411V51.2597H67.5697V47.365Z" fill="#1C1C1C"/>
</svg>
