<svg width="100" height="100" viewBox="0 0 100 100" fill="none" xmlns="http://www.w3.org/2000/svg">
<path d="M56.4644 70.3112H55.5144C53.0627 70.1362 50.6094 70.6301 48.4165 71.7403C48.0357 71.9774 47.5963 72.1037 47.1477 72.1049C47.0273 72.099 46.9075 72.0837 46.7894 72.0591C46.51 72.1194 46.2212 72.1221 45.9407 72.067C45.6602 72.0118 45.3939 71.8999 45.1581 71.7382C42.9647 70.6294 40.512 70.1348 38.0602 70.307H13.1436V18.0153H38.0623C41.1106 17.8834 44.1352 18.6049 46.7956 20.0987C49.478 18.619 52.5253 17.9312 55.5831 18.1153L80.4331 18.0216V50.5945C79.1313 49.822 77.7292 49.2324 76.2665 48.8424V22.2028L55.5227 22.2799C55.3831 22.2799 55.2352 22.2799 55.0811 22.2799C52.9983 22.1436 50.9187 22.5894 49.0748 23.5674C48.9436 23.6924 48.9436 23.7466 48.9436 23.8132V67.007C51.0803 66.3986 53.2951 66.1087 55.5165 66.1466H55.5706C55.6837 67.5675 55.982 68.9676 56.4581 70.3112H56.4644ZM44.6436 23.8112C44.6436 23.7466 44.6436 23.682 44.5061 23.5487C42.5455 22.5024 40.3288 22.0322 38.1123 22.1924H17.3206L17.3102 66.1507H38.0623C40.2839 66.1144 42.4986 66.4057 44.6352 67.0153L44.6436 23.8112ZM87.1644 82.8903L79.1665 74.8799C76.6331 76.678 73.5169 77.4594 70.4349 77.0692C67.3528 76.679 64.5297 75.1458 62.5243 72.7731C60.519 70.4004 59.4776 67.3612 59.6065 64.2572C59.7354 61.1532 61.0252 58.2108 63.2203 56.0126C65.4155 53.8143 68.3561 52.5204 71.4599 52.3871C74.5636 52.2538 77.6043 53.2908 79.9799 55.2928C82.3554 57.2948 83.8926 60.1158 84.2872 63.1973C84.6817 66.2788 83.9048 69.3961 82.1102 71.932L90.1081 79.9487L87.1644 82.8903ZM80.2269 64.807C80.2273 63.1854 79.7468 61.6001 78.8462 60.2517C77.9455 58.9032 76.6652 57.8522 75.1671 57.2314C73.6691 56.6107 72.0206 56.4482 70.4301 56.7644C68.8397 57.0807 67.3788 57.8615 66.2322 59.0081C65.0855 60.1547 64.3047 61.6157 63.9885 63.2061C63.6722 64.7965 63.8347 66.445 64.4555 67.9431C65.0762 69.4411 66.1273 70.7215 67.4757 71.6221C68.8242 72.5227 70.4095 73.0032 72.0311 73.0028C74.205 73.0001 76.2889 72.1348 77.8255 70.5971C79.3621 69.0593 80.2258 66.9746 80.2269 64.8007V64.807Z" fill="#1C1C1C"/>
<path d="M21.4811 29.6349H40.523V33.807H21.4811V29.6349Z" fill="#1C1C1C"/>
<path d="M21.4811 38.3547H32.0235V42.5269H21.4811V38.3547Z" fill="#1C1C1C"/>
<path d="M40.523 59.9666H29.9806V55.7944H40.523V59.9666Z" fill="#1C1C1C"/>
<path d="M34.8994 38.3547H40.523V42.5269H34.8994V38.3547Z" fill="#1C1C1C"/>
<path d="M27.1047 59.9666H21.4811L21.4811 55.7944H27.1047V59.9666Z" fill="#1C1C1C"/>
<path d="M21.4811 47.0746H40.523V51.2467H21.4811V47.0746Z" fill="#1C1C1C"/>
</svg>
