<svg width="100" height="100" viewBox="0 0 100 100" fill="none" xmlns="http://www.w3.org/2000/svg">
<path fill-rule="evenodd" clip-rule="evenodd" d="M80.2105 27.0495V24.1021H73.3339L73.3358 27.0495H80.2105ZM85 21V79.4279H15V21H85ZM18.6842 75.7437H81.3158V30.5237H18.6842V75.7437Z" fill="#1C1C1C"/>
<path d="M37.252 48.1765L53.5454 40.3828V64.9322L37.252 57.1648V52.5501V48.1765Z" stroke="black" stroke-width="4"/>
<path d="M58.9888 51.2089H69.346V55.3501H58.9888V51.2089Z" fill="#1C1C1C"/>
<path d="M58.7376 44.9719L67.2217 39.0312L69.5969 42.4235L61.1128 48.3641L58.7376 44.9719Z" fill="#1C1C1C"/>
<path d="M61.1126 58.1952L69.5967 64.1358L67.2214 67.5281L58.7373 61.5875L61.1126 58.1952Z" fill="#1C1C1C"/>
<path d="M30.4033 52.5533V48.1797H37.2516V57.1679H30.4033V52.5533Z" stroke="black" stroke-width="4"/>
<path d="M53.543 36.125L53.543 70.435" stroke="black" stroke-width="4"/>
</svg>
