<svg width="100" height="100" viewBox="0 0 100 100" fill="none" xmlns="http://www.w3.org/2000/svg">
<path d="M42.763 31.2284L38.8291 24.0563L41.6792 22.494L45.6131 29.6661L42.763 31.2284ZM52.6138 19.4535L49.3924 19.0234L48.237 27.6745L51.4585 28.1046L52.6138 19.4535ZM39.7201 32.3448L31.803 28.6711L30.4352 31.6196L38.3522 35.2933L39.7201 32.3448ZM45.4975 63.9786L40.1774 71.7304C39.202 73.2419 37.6669 74.3048 35.9089 74.686C34.1509 75.0671 32.3134 74.7353 30.7997 73.7634L28.5169 72.2942C27.0054 71.3188 25.9424 69.7838 25.5613 68.0257C25.1801 66.2677 25.5119 64.4302 26.4838 62.9165L37.0473 47.0186C38.0226 45.5071 39.5576 44.4441 41.3157 44.063C43.0737 43.6818 44.9111 44.0136 46.4249 44.9855L48.7076 46.4549C50.0293 47.3136 51.007 48.6097 51.4696 50.1164C51.5046 50.0668 51.5485 50.0273 51.5816 49.9757L55.047 44.5919C54.1622 43.4109 53.075 42.3962 51.8357 41.5949L49.553 40.1256C46.7498 38.3258 43.3472 37.7114 40.0916 38.4172C36.8361 39.123 33.9934 41.0914 32.1873 43.8905L21.6238 59.7884C19.8241 62.5916 19.2097 65.9942 19.9155 69.2497C20.6214 72.5053 22.5897 75.348 25.3888 77.1541L27.6716 78.6234C30.4747 80.4232 33.8774 81.0375 37.1329 80.3317C40.3885 79.6259 43.2312 77.6575 45.0373 74.8584L52.7555 63.381C50.4022 64.0732 47.9323 64.2765 45.4975 63.9786V63.9786ZM80.4411 39.6638L79.6911 37.0547C78.767 33.8543 76.6111 31.1511 73.6965 29.5382C70.7818 27.9253 67.3464 27.5344 64.1439 28.4512L55.1578 31.1222L56.8464 36.5632L65.7407 34.0058C67.4701 33.5106 69.3254 33.7217 70.8993 34.5927C72.4733 35.4637 73.6375 36.9235 74.1365 38.6518L74.8865 41.2609C75.3818 42.9903 75.1708 44.8455 74.2998 46.4195C73.4288 47.9935 71.969 49.1577 70.2406 49.6566L51.5166 54.6785C49.9325 55.1696 48.2189 55.0192 46.7446 54.2596C45.7242 53.5989 44.8121 52.7845 44.0403 51.8454C43.952 51.7411 43.6688 51.359 43.6656 51.353L39.1312 55.0192C40.5974 57.2712 42.7468 58.994 45.264 59.9348C47.7811 60.8756 50.5336 60.9849 53.1174 60.2467L71.8378 55.2112C75.0383 54.2871 77.7416 52.1312 79.3544 49.2165C80.9673 46.3018 81.3581 42.8663 80.4411 39.6638V39.6638Z" fill="#1C1C1C"/>
</svg>
