<svg width="100" height="100" viewBox="0 0 100 100" fill="none" xmlns="http://www.w3.org/2000/svg">
<path d="M22 13V87L33.4895 79.0762L41.6684 85.2532L50.0012 79.0216L57.1481 84.6554L65.6172 78.9768L77.8174 86.8715V13H22ZM73.9344 79.7227L65.5918 74.3226L57.3447 79.8532L50.0752 74.1221L41.6898 80.3926L33.5966 74.2837L32.4398 75.0821L25.8947 79.5942V16.8947H73.9344V79.7227ZM67.4788 61.6823H32.3503V65.577H67.4788V61.6823ZM67.4788 52.7244H32.3503V56.6191H67.4788V52.7244Z" fill="#1C1C1C"/>
<path d="M32.3506 43.8594H67.4792V47.7541H32.3506V43.8594Z" fill="#1C1C1C"/>
<path d="M47.9688 22.8594H51.9688L51.434 32.9283H48.5001L47.9688 22.8594ZM48.1867 34.3331H51.7315V37.8594H48.1867V34.3331Z" fill="#1C1C1C"/>
</svg>
