<svg width="100" height="100" viewBox="0 0 100 100" fill="none" xmlns="http://www.w3.org/2000/svg">
<g clip-path="url(#clip0_225_98261)">
<path d="M87.9157 48.5954C75.1174 35.7679 62.1378 31.3051 50.6854 31.3243C39.2324 31.3304 29.4119 35.6753 22.4569 39.9653C15.4982 44.2636 11.3695 48.5379 11.2862 48.6219L9.86523 50.0946L11.3123 51.5417C24.1106 64.3691 37.0902 68.8319 48.5426 68.8127C59.9957 68.8066 69.8161 64.4617 76.7711 60.1717C83.7298 55.8734 87.8585 51.5991 87.9418 51.5151L89.3628 50.0425L87.9157 48.5954ZM49.614 62.152C46.2707 62.151 43.2629 60.8027 41.0697 58.6128C38.8797 56.4195 37.5314 53.4119 37.5304 50.0685C37.5314 46.7251 38.8797 43.7175 41.0697 41.5241C43.2629 39.3342 46.2707 37.986 49.614 37.985C52.9574 37.986 55.9651 39.3342 58.1584 41.5241C60.3483 43.7175 61.6965 46.7251 61.6975 50.0685C61.6965 53.4119 60.3483 56.4195 58.1584 58.6128C55.9651 60.8027 52.9574 62.151 49.614 62.152ZM25.2658 43.1328C29.3933 40.6475 34.4923 38.2406 40.2372 36.8116C36.0835 39.755 33.3646 44.5894 33.3638 50.0685C33.3646 55.9673 36.517 61.115 41.2187 63.9623C33.2453 62.4954 24.6643 58.4369 15.8102 50.0818C17.5873 48.4872 20.8453 45.791 25.2658 43.1328V43.1328ZM73.9622 57.0042C69.8347 59.4894 64.7357 61.8964 58.9906 63.3254C63.1443 60.382 65.8633 55.5477 65.8642 50.0685C65.8633 44.1699 62.7111 39.0219 58.0096 36.1747C65.983 37.6417 74.5638 41.7002 83.4178 50.0552C81.6407 51.6497 78.3827 54.346 73.9622 57.0042V57.0042Z" fill="#1C1C1C"/>
<line x1="58.3386" y1="39.7962" x2="40.1858" y2="60.9046" stroke="black" stroke-width="4"/>
</g>
<defs>
<clipPath id="clip0_225_98261">
<rect width="100" height="100" fill="white"/>
</clipPath>
</defs>
</svg>
