<svg width="100" height="100" viewBox="0 0 100 100" fill="none" xmlns="http://www.w3.org/2000/svg">
<path d="M71.7641 48.6471C75.0467 48.6539 78.2305 47.5236 80.774 45.4485C83.3176 43.3734 85.0641 40.4814 85.7165 37.2642C86.369 34.047 85.8872 30.7032 84.353 27.801C82.8188 24.8989 80.3269 22.6177 77.301 21.3451C76.4824 21.044 75.6315 20.8392 74.7656 20.7349C74.7656 21.2813 74.7838 32.5919 74.7838 32.5919L71.815 34.3677L68.7679 32.4808C68.7679 32.4808 68.7279 21.4434 68.7279 20.7604C67.8606 20.8363 67.0089 21.0381 66.1998 21.3596C62.8668 22.7697 60.2002 25.4025 58.7478 28.7172C57.2953 32.032 57.1673 35.7771 58.3899 39.1833L52.3794 45.181L42.1471 35.4022C42.0707 35.132 41.9286 34.8849 41.7337 34.6828C41.3153 33.871 41.1265 32.9605 41.1875 32.0493C41.2485 31.1381 41.557 30.2608 42.0797 29.512C44.0431 27.3519 46.4874 26.78 49.795 26.5578L50.2958 20.6602C43.4202 17.1651 37.0874 20.0811 34.3863 21.3287L33.9219 21.5418C32.7442 22.2581 31.6248 23.0663 30.5743 23.9587L24.715 28.9055C23.7132 29.7435 22.9845 30.8616 22.6223 32.1165L21.9702 34.1601L20.8774 33.1092L14 39.9082L25.3197 50.7635L26.5454 49.5523L30.8821 45.2794L32.1934 43.9644L30.8985 42.7222C30.8839 42.7077 30.8784 42.6858 30.862 42.6694L30.7837 42.5984C31.8603 42.4531 32.9533 42.4832 34.0203 42.6876L44.2799 53.2514L28.2229 69.2647C27.061 70.4663 26.4174 72.0762 26.4309 73.7476C26.4444 75.4191 27.1139 77.0184 28.2951 78.201C29.4763 79.3837 31.0748 80.0551 32.7462 80.0706C34.4176 80.0861 36.0283 79.4445 37.2313 78.284L53.1517 62.4074L70.3252 79.9743L73.5417 80.0271L79.2152 74.3281L79.2061 71.0242L61.59 53.9927L67.5822 48.0169C68.9367 48.4356 70.3464 48.648 71.7641 48.6471V48.6471ZM26.9589 44.0045L25.2741 45.671L19.2273 39.87L20.912 38.2035L26.9589 44.0045ZM27.8605 39.8044L24.8917 36.9558L26.0992 33.1674C26.2614 32.5888 26.5947 32.0726 27.0554 31.6867L32.9092 26.7399C33.4556 26.2718 35.0439 25.0515 35.3954 24.8639L35.8981 24.6344C39.2484 22.7604 43.1906 22.2453 46.9099 23.1956C44.0165 23.5439 41.3426 24.9138 39.3696 27.0586C38.4229 28.2389 37.8076 29.6498 37.5867 31.1466C37.3659 32.6433 37.5475 34.1719 38.1128 35.5753L34.4264 39.0577C32.2175 38.592 29.9172 38.854 27.8696 39.8044H27.8605ZM37.5482 41.1049L40.2092 38.6023L49.795 47.7546L46.8608 50.6797L37.5482 41.1049ZM66.7153 43.7221L64.0634 46.3667L58.9436 51.4665L56.3646 54.0401L53.1863 57.2256L50.6073 59.7992L34.6523 75.7123C34.1318 76.2095 33.4396 76.487 32.7198 76.487C32 76.487 31.3079 76.2095 30.7874 75.7123C30.2757 75.2 29.9884 74.5057 29.9884 73.7817C29.9884 73.0577 30.2757 72.3633 30.7874 71.851L46.8116 55.8705L49.3906 53.297L52.4268 50.2699L55.0076 47.6963L60.1402 42.5765L62.7721 39.952C62.6792 39.8008 62.5808 39.6533 62.4952 39.4966C61.3107 37.3288 60.9233 34.8145 61.4005 32.3907C61.8777 29.9669 63.1892 27.787 65.107 26.2299L65.1325 34.5098L71.7859 38.6297L78.432 34.6537L78.4193 26.2154C80.4225 27.8206 81.7727 30.1003 82.2175 32.6285C82.6623 35.1567 82.1713 37.7604 80.8363 39.9529C79.5012 42.1455 77.4135 43.7769 74.9632 44.5423C72.5129 45.3077 69.8678 45.1547 67.5221 44.1119C67.2526 43.9881 66.9848 43.8624 66.7262 43.7221H66.7153Z" fill="#1C1C1C"/>
</svg>
