<?xml version="1.0" encoding="UTF-8"?>
<svg id="Layer_1" xmlns="http://www.w3.org/2000/svg" version="1.1" viewBox="0 0 100 100">
  <!-- Generator: Adobe Illustrator 29.7.0, SVG Export Plug-In . SVG Version: 2.1.1 Build 138)  -->
  <defs>
    <style>
      .st0 {
        fill: none;
        stroke: #000;
        stroke-linejoin: round;
        stroke-width: 5px;
      }
    </style>
  </defs>
  <g>
    <path d="M-64.89-112.02c17.92,0,32.5,14.58,32.5,32.5s-14.58,32.5-32.5,32.5-32.5-14.58-32.5-32.5,14.58-32.5,32.5-32.5M-64.89-117.02c-20.71,0-37.5,16.79-37.5,37.5s16.79,37.5,37.5,37.5,37.5-16.79,37.5-37.5-16.79-37.5-37.5-37.5h0Z"/>
    <polyline class="st0" points="-64.89 -100.5 -64.89 -78.9 -49.53 -63.72"/>
  </g>
  <g>
    <path d="M81.38-112.02c.55,0,1,.45,1,1v61.2c0,.55-.45,1-1,1H18.38c-.55,0-1-.45-1-1v-61.2c0-.55.45-1,1-1h63M81.38-117.02H18.38c-3.31,0-6,2.69-6,6v61.2c0,3.31,2.69,6,6,6h63c3.31,0,6-2.69,6-6v-61.2c0-3.31-2.69-6-6-6h0Z"/>
    <polyline class="st0" points="27.89 -78.71 44.28 -62.02 71.88 -98.81"/>
  </g>
  <g>
    <path d="M50,18.1l37.18,64.4H12.82L50,18.1M50,12.5c-1.48,0-2.96.73-3.81,2.2L7.96,80.9c-1.69,2.93.42,6.6,3.81,6.6h76.46c3.38,0,5.5-3.66,3.81-6.6L53.81,14.7c-.85-1.47-2.33-2.2-3.81-2.2h0Z"/>
    <g>
      <rect x="47.67" y="35.05" width="5" height="29.34"/>
      <rect x="47.67" y="69.81" width="5" height="7.5"/>
    </g>
  </g>
  <g>
    <g>
      <polyline class="st0" points="147.86 -107.13 153.78 -101.21 152.25 -92.47 143.51 -90.94 137.59 -96.87"/>
      <polyline class="st0" points="168.42 -66.04 162.5 -71.96 164.03 -80.7 172.76 -82.22 178.69 -76.3"/>
      <line class="st0" x1="152.25" y1="-92.47" x2="164.03" y2="-80.7"/>
    </g>
    <path d="M176.9-119.08l18.76,32.5-18.76,32.5h-37.53l-18.76-32.5,18.76-32.5h37.53M179.79-124.08h-43.3l-21.65,37.5,21.65,37.5h43.3l21.65-37.5-21.65-37.5h0Z"/>
  </g>
</svg>