<svg width="100" height="100" viewBox="0 0 100 100" fill="none" xmlns="http://www.w3.org/2000/svg">
<path fill-rule="evenodd" clip-rule="evenodd" d="M80.2105 27.0495V24.1021H73.3339L73.3358 27.0495H80.2105ZM85 21V79.4279H15V21H85ZM18.6842 75.7437H81.3158V30.5237H18.6842V75.7437Z" fill="#1C1C1C"/>
<path d="M70.9184 69.8817L61.7974 60.648C63.9436 57.9232 65.2346 54.4928 65.2351 50.7543C65.2339 41.9081 58.0654 34.7396 49.2191 34.7383C40.373 34.7396 33.2045 41.9081 33.2031 50.7543C33.2044 59.6005 40.373 66.769 49.2191 66.7703C52.8869 66.7698 56.2556 65.5238 58.9553 63.4503L68.0789 72.6866L70.9184 69.8817ZM49.2191 62.779C45.8923 62.7781 42.8987 61.4363 40.7163 59.2571C38.5372 57.0747 37.1954 54.0812 37.1944 50.7543C37.1954 47.4274 38.5372 44.4339 40.7163 42.2515C42.8987 40.0723 45.8923 38.7305 49.2191 38.7296C52.546 38.7305 55.5396 40.0723 57.7219 42.2515C59.9011 44.4339 61.2429 47.4274 61.2439 50.7543C61.2429 54.0812 59.9011 57.0747 57.7219 59.2571C55.5396 61.4363 52.546 62.7781 49.2191 62.779Z" fill="#1C1C1C"/>
<path d="M49.5073 49.4449C48.555 50.3768 47.5009 51.3705 47.5009 52.9513V53.5594H50.2159V53.0505C50.338 51.9563 51.3896 51.1453 52.3438 50.2133C53.2153 49.3635 54.006 48.4322 54.006 47.0327C54.006 44.8845 52.4863 43.3851 49.5066 43.3851C46.6288 43.3851 44.6218 45.0467 44.5009 47.8641H47.319C47.4602 46.567 48.2102 45.777 49.3247 45.777C49.5314 45.7461 49.7425 45.763 49.9417 45.8265C50.1409 45.89 50.3229 45.9983 50.4736 46.1431C50.6244 46.2879 50.74 46.4653 50.8114 46.6618C50.8828 46.8583 50.9083 47.0685 50.8858 47.2763C50.8858 48.0874 50.2369 48.7356 49.5073 49.4449Z" fill="#1C1C1C"/>
<path d="M50.3788 55.0969H47.2776V58.0766H50.3788V55.0969Z" fill="#1C1C1C"/>
</svg>
