<svg width="100" height="100" viewBox="0 0 100 100" fill="none" xmlns="http://www.w3.org/2000/svg">
<path d="M55.7206 42.1998C55.7164 34.4611 49.4619 28.1857 41.7259 28.1502V28.1485L41.6842 28.1481L41.663 28.148C33.9186 28.1494 27.638 34.4102 27.6079 42.1529H27.6065L27.6062 42.185L27.6061 42.2055C27.6075 49.9608 33.8858 56.2502 41.6436 56.2625H41.6816L41.7167 56.2614V56.2597C49.4474 56.2295 55.7082 49.965 55.7207 42.2252V42.2049L55.7206 42.1998ZM41.6638 52.4082L41.6494 52.4085C36.1926 52.4021 31.7714 47.973 31.7728 42.518V42.5037C31.7791 37.0468 36.2081 32.6257 41.663 32.6271H41.6774C47.1343 32.6335 51.5553 37.0623 51.554 42.5173V42.5317C51.5477 47.9886 47.1187 52.4096 41.6638 52.4082ZM87.2145 79.437L89.5167 72.4247L85.6362 69.672C85.6484 68.7078 85.566 67.7544 85.4137 66.8167L88.931 63.6408L85.6005 57.0544L80.8984 57.8539C80.2356 57.1739 79.5162 56.5431 78.7343 55.9793L78.9752 51.2573L71.9629 48.9551L69.2103 52.8356C68.246 52.8235 67.2924 52.9058 66.3549 53.058L63.179 49.5407L56.5927 52.8713L57.3922 57.5734C56.7122 58.2362 56.0813 58.9557 55.5177 59.7375L50.7954 59.4966L48.4933 66.5088L52.3737 69.2616C52.3616 70.2259 52.444 71.1793 52.5963 72.117L49.0788 75.2928L52.4095 81.8792L57.1116 81.0797C57.7743 81.7597 58.4938 82.3905 59.2756 82.9542L59.0348 87.6763L66.0471 89.9785L68.7997 86.0981C69.7641 86.1104 70.7175 86.0277 71.6551 85.8755L74.831 89.3929L81.4173 86.0624L80.618 81.3603C81.298 80.6975 81.9286 79.978 82.4924 79.1961L87.2145 79.437ZM66.9789 76.2729C63.22 75.0388 61.1732 70.9912 62.4073 67.2324C63.6413 63.4735 67.6889 61.4267 71.4478 62.6608C75.2067 63.8948 77.2534 67.9424 76.0194 71.7013C74.7853 75.4602 70.7377 77.5069 66.9789 76.2729ZM46.0614 73.4012L34.6187 73.3921L32.7167 66.3795C32.0398 66.1268 31.3791 65.8496 30.7344 65.5452L24.2718 68.9444L14.6298 59.2753L18.2465 52.9675C17.9461 52.322 17.673 51.6589 17.4238 50.9789L10.458 48.8148L10.4775 35.1601L17.4891 33.2585C17.7418 32.5817 18.0189 31.921 18.3234 31.2763L14.9243 24.8135L24.5932 15.1718L30.9012 18.7882C31.5469 18.4879 32.2099 18.2149 32.8898 17.9658L35.0535 11L48.7085 11.0192L50.61 18.0309C51.2869 18.2835 51.9477 18.5607 52.5923 18.8653L59.0549 15.4659L68.6967 25.1351L65.0803 31.4431C65.3806 32.0889 65.6537 32.7517 65.9028 33.4316L72.8682 35.5954L72.8554 46.1688L68.6904 44.8399L68.6979 38.6629L62.6405 36.7811L62.3142 35.7381C61.9443 34.5553 61.459 33.4106 60.8851 32.2995L60.3644 31.2915L63.4991 25.8237L58.2746 20.5842L52.6461 23.5448L51.6774 23.0376C50.5746 22.46 49.4311 21.972 48.2461 21.594L47.1655 21.2491L45.52 15.1813L38.121 15.1709L36.2396 21.2278L35.1964 21.5542C34.0134 21.9244 32.8683 22.4097 31.7577 22.9835L30.7496 23.5043L25.2818 20.3695L20.0425 25.5939L23.0031 31.2225L22.4958 32.1912C21.9184 33.294 21.4303 34.4377 21.0522 35.6224L20.7074 36.7029L14.6395 38.3486L14.6291 45.7476L20.6857 47.6292L21.0123 48.6722C21.3825 49.8552 21.8678 51.0001 22.4418 52.1109L22.9625 53.119L19.8275 58.5869L25.0522 63.8261L30.6807 60.8656L31.6494 61.3729C32.752 61.9504 33.8958 62.4384 35.0806 62.8166L36.1609 63.1613L37.8065 69.228L46.7518 69.2352L48.949 70.794L46.8451 72.6938L46.0614 73.4012Z" fill="#1C1C1C"/>
</svg>
