<?xml version="1.0" encoding="UTF-8"?>
<svg id="Layer_1" xmlns="http://www.w3.org/2000/svg" version="1.1" viewBox="0 0 100 100">
  <!-- Generator: Adobe Illustrator 29.7.0, SVG Export Plug-In . SVG Version: 2.1.1 Build 138)  -->
  <defs>
    <style>
      .st0 {
        fill: none;
        stroke: #000;
        stroke-linejoin: round;
        stroke-width: 5px;
      }
    </style>
  </defs>
  <g>
    <path d="M-58.44-103.34c22.06,0,40,17.94,40,40S-36.39-23.34-58.44-23.34s-40-17.94-40-40,17.94-40,40-40M-58.44-108.34c-24.85,0-45,20.15-45,45s20.15,45,45,45S-13.44-38.48-13.44-63.34s-20.15-45-45-45h0Z"/>
    <polyline class="st0" points="-58.44 -88.52 -58.44 -62.6 -40.01 -44.38"/>
  </g>
  <g>
    <path d="M-19.44,11.08c.55,0,1,.45,1,1v75.84c0,.55-.45,1-1,1h-78c-.55,0-1-.45-1-1V12.08c0-.55.45-1,1-1H-19.44M-19.44,6.08h-78c-3.31,0-6,2.69-6,6v75.84c0,3.31,2.69,6,6,6H-19.44c3.31,0,6-2.69,6-6V12.08c0-3.31-2.69-6-6-6h0Z"/>
    <polyline class="st0" points="-84.84 52.05 -65.16 72.07 -32.05 27.93"/>
  </g>
  <g>
    <path d="M50,11.18l42.42,73.46H7.58S50,11.18,50,11.18M50,6.08c-1.65,0-3.3.82-4.24,2.45L3.16,82.29c-1.89,3.27.47,7.35,4.24,7.35h85.19c3.77,0,6.13-4.08,4.24-7.35L54.24,8.53c-.94-1.63-2.59-2.45-4.24-2.45h0Z"/>
    <g>
      <line class="st0" x1="50.18" y1="31.2" x2="50.18" y2="63.89"/>
      <line class="st0" x1="50.18" y1="69.93" x2="50.18" y2="78.28"/>
    </g>
  </g>
  <g>
    <g>
      <polyline class="st0" points="38.72 -85.88 45.22 -79.38 43.54 -69.8 33.96 -68.12 27.46 -74.62"/>
      <polyline class="st0" points="61.28 -40.8 54.78 -47.29 56.46 -56.88 66.04 -58.55 72.54 -52.06"/>
      <line class="st0" x1="43.54" y1="-69.8" x2="56.46" y2="-56.88"/>
    </g>
    <path d="M70.86-99.47l20.86,36.14-20.86,36.14H29.14L8.27-63.34l20.86-36.14h41.73M73.75-104.47H26.25L2.5-63.34,26.25-22.2h47.5l23.75-41.14-23.75-41.14h0Z"/>
  </g>
</svg>