<?xml version="1.0" encoding="UTF-8"?>
<svg id="Layer_1" xmlns="http://www.w3.org/2000/svg" version="1.1" viewBox="0 0 100 125">
  <!-- Generator: Adobe Illustrator 29.7.0, SVG Export Plug-In . SVG Version: 2.1.1 Build 138)  -->
  <defs>
    <style>
      .st0 {
        font-family: Arial-BoldMT, Arial;
        font-size: 5px;
        font-weight: 700;
        isolation: isolate;
      }

      .st1 {
        stroke-linejoin: round;
        stroke-width: 5px;
      }

      .st1, .st2 {
        fill: none;
        stroke: #000;
      }

      .st2 {
        stroke-miterlimit: 10;
        stroke-width: 3px;
      }
    </style>
  </defs>
  <path d="M195.63,5h90l-45-77.94L195.63,5ZM206.88-1.5l33.75-58.46L274.38-1.5h-67.5Z"/>
  <circle cx="240.63" cy="74.36" r="4.87"/>
  <polygon points="237.63 65.59 243.64 65.59 245.51 40.26 235.76 40.26 237.63 65.59"/>
  <text class="st0" transform="translate(0 115)"><tspan x="0" y="0">Created by David Khai</tspan></text>
  <text class="st0" transform="translate(0 120)"><tspan x="0" y="0">from the Noun Project</tspan></text>
  <path d="M361.5,94.39c20.92,0,37.94-17.02,37.94-37.94s-17.02-37.94-37.94-37.94-37.94,17.02-37.94,37.94,17.02,37.94,37.94,37.94ZM361.5,27.44c16,0,29.01,13.01,29.01,29.01s-13.02,29.01-29.01,29.01-29.01-13.02-29.01-29.01,13.01-29.01,29.01-29.01Z"/>
  <polygon points="379.45 68.09 365.97 54.6 365.97 35.53 357.04 35.53 357.04 58.3 373.14 74.4 379.45 68.09"/>
  <rect x="390.52" y="11.14" width="8.93" height="23.67" transform="translate(99.43 286.02) rotate(-45)"/>
  <rect x="316.19" y="18.52" width="23.67" height="8.93" transform="translate(79.83 238.68) rotate(-45)"/>
  <polygon points="520.23 41.08 512.28 33.12 492.11 53.29 480.86 42.04 472.9 50 492.11 69.21 520.23 41.08"/>
  <path d="M534.78,5h-78.75c-3.11,0-5.62,2.52-5.62,5.62v78.75c0,3.11,2.52,5.62,5.62,5.62h78.75c3.11,0,5.62-2.52,5.62-5.62V10.62c0-3.11-2.52-5.62-5.62-5.62ZM529.15,83.75h-67.5V16.25h67.5v67.5Z"/>
  <circle class="st2" cx="679.26" cy="211.56" r="37.01"/>
  <g>
    <path d="M190.89,177.06c19.02,0,34.5,15.48,34.5,34.5s-15.48,34.5-34.5,34.5-34.5-15.48-34.5-34.5,15.48-34.5,34.5-34.5M190.89,174.06c-20.71,0-37.5,16.79-37.5,37.5s16.79,37.5,37.5,37.5,37.5-16.79,37.5-37.5-16.79-37.5-37.5-37.5h0Z"/>
    <polyline class="st1" points="190.89 187.12 190.89 212.65 209.04 230.6"/>
  </g>
  <g>
    <path d="M504.4,177.96c1.65,0,3,1.35,3,3v61.2c0,1.65-1.35,3-3,3h-63c-1.65,0-3-1.35-3-3v-61.2c0-1.65,1.35-3,3-3h63M504.4,174.96h-63c-3.31,0-6,2.69-6,6v61.2c0,3.31,2.69,6,6,6h63c3.31,0,6-2.69,6-6v-61.2c0-3.31-2.69-6-6-6h0Z"/>
    <polyline class="st1" points="448.13 213.48 466.6 232.28 497.68 190.84"/>
  </g>
  <rect class="st2" x="702.62" y="175.44" width="74.01" height="72.23" rx="6" ry="6"/>
  <polygon class="st2" points="240.63 16.25 240.63 85.47 200.67 85.47 240.63 16.25"/>
  <g>
    <path d="M377.4,179.06c.3,0,.86.09,1.21.7l38.23,66.21c.35.61.15,1.14,0,1.4-.15.26-.51.7-1.21.7h-76.46c-.7,0-1.06-.44-1.21-.7-.15-.26-.35-.79,0-1.4l38.23-66.21c.35-.61.91-.7,1.21-.7M377.4,176.06c-1.48,0-2.96.73-3.81,2.2l-38.23,66.21c-1.69,2.93.42,6.6,3.81,6.6h76.46c3.38,0,5.5-3.66,3.81-6.6l-38.23-66.21c-.85-1.47-2.33-2.2-3.81-2.2h0Z"/>
    <g>
      <line class="st1" x1="377.57" y1="195.77" x2="377.57" y2="230.94"/>
      <line class="st1" x1="377.57" y1="233.83" x2="377.57" y2="242.82"/>
    </g>
  </g>
  <g>
    <g>
      <polyline class="st1" points="273.96 185.93 281.47 193.44 279.53 204.52 268.45 206.46 260.94 198.95"/>
      <polyline class="st1" points="300.04 238.05 292.53 230.54 294.47 219.46 305.55 217.52 313.06 225.03"/>
      <line class="st1" x1="279.53" y1="204.52" x2="294.47" y2="219.46"/>
    </g>
    <path d="M306.92,177.49l19.92,34.5-19.92,34.5h-39.84l-19.92-34.5,19.92-34.5h39.84M308.65,174.49h-43.3l-21.65,37.5,21.65,37.5h43.3l21.65-37.5-21.65-37.5h0Z"/>
  </g>
</svg>