<?xml version="1.0" encoding="UTF-8"?>
<svg id="Layer_1" xmlns="http://www.w3.org/2000/svg" version="1.1" viewBox="0 0 100 100">
  <!-- Generator: Adobe Illustrator 29.7.0, SVG Export Plug-In . SVG Version: 2.1.1 Build 138)  -->
  <defs>
    <style>
      .st0 {
        fill: none;
        stroke: #000;
        stroke-linejoin: round;
        stroke-width: 5px;
      }
    </style>
  </defs>
  <g>
    <path d="M-58.44,10c22.06,0,40,17.94,40,40s-17.94,40-40,40-40-17.94-40-40S-80.5,10-58.44,10M-58.44,5c-24.85,0-45,20.15-45,45s20.15,45,45,45S-13.44,74.85-13.44,50-33.59,5-58.44,5h0Z"/>
    <polyline class="st0" points="-58.44 24.82 -58.44 50.73 -40.01 68.95"/>
  </g>
  <g>
    <path d="M-19.44,124.41c.55,0,1,.45,1,1v75.84c0,.55-.45,1-1,1h-78c-.55,0-1-.45-1-1v-75.84c0-.55.45-1,1-1H-19.44M-19.44,119.41h-78c-3.31,0-6,2.69-6,6v75.84c0,3.31,2.69,6,6,6H-19.44c3.31,0,6-2.69,6-6v-75.84c0-3.31-2.69-6-6-6h0Z"/>
    <polyline class="st0" points="-84.84 165.38 -65.16 185.41 -32.05 141.26"/>
  </g>
  <g>
    <path d="M50,124.52l42.42,73.46H7.58s42.42-73.46,42.42-73.46M50,119.41c-1.65,0-3.3.82-4.24,2.45L3.16,195.63c-1.89,3.27.47,7.35,4.24,7.35h85.19c3.77,0,6.13-4.08,4.24-7.35l-42.59-73.76c-.94-1.63-2.59-2.45-4.24-2.45h0Z"/>
    <g>
      <line class="st0" x1="50.18" y1="144.54" x2="50.18" y2="177.23"/>
      <line class="st0" x1="50.18" y1="183.26" x2="50.18" y2="191.62"/>
    </g>
  </g>
  <g>
    <g>
      <polyline class="st0" points="38.72 27.46 45.22 33.95 43.54 43.54 33.96 45.21 27.46 38.72"/>
      <polyline class="st0" points="61.28 72.54 54.78 66.04 56.46 56.45 66.04 54.78 72.54 61.28"/>
      <line class="st0" x1="43.54" y1="43.54" x2="56.46" y2="56.45"/>
    </g>
    <path d="M70.86,13.86l20.86,36.14-20.86,36.14H29.14L8.27,50,29.14,13.86h41.73M73.75,8.86H26.25L2.5,50l23.75,41.14h47.5l23.75-41.14-23.75-41.14h0Z"/>
  </g>
</svg>