<?xml version="1.0" encoding="UTF-8"?>
<svg id="Layer_1" xmlns="http://www.w3.org/2000/svg" version="1.1" viewBox="0 0 100 100">
  <!-- Generator: Adobe Illustrator 29.7.0, SVG Export Plug-In . SVG Version: 2.1.1 Build 138)  -->
  <defs>
    <style>
      .st0 {
        fill: none;
        stroke: #000;
        stroke-linejoin: round;
        stroke-width: 5px;
      }
    </style>
  </defs>
  <g>
    <path d="M-66,15.5c19.02,0,34.5,15.48,34.5,34.5s-15.48,34.5-34.5,34.5-34.5-15.48-34.5-34.5,15.48-34.5,34.5-34.5M-66,12.5c-20.71,0-37.5,16.79-37.5,37.5s16.79,37.5,37.5,37.5,37.5-16.79,37.5-37.5S-45.29,12.5-66,12.5h0Z"/>
    <polyline class="st0" points="-66 25.56 -66 51.09 -47.84 69.03"/>
  </g>
  <g>
    <path d="M504.4,165.46c1.65,0,3,1.35,3,3v61.2c0,1.65-1.35,3-3,3h-63c-1.65,0-3-1.35-3-3v-61.2c0-1.65,1.35-3,3-3h63M504.4,162.46h-63c-3.31,0-6,2.69-6,6v61.2c0,3.31,2.69,6,6,6h63c3.31,0,6-2.69,6-6v-61.2c0-3.31-2.69-6-6-6h0Z"/>
    <polyline class="st0" points="448.13 200.98 466.6 219.78 497.68 178.34"/>
  </g>
  <g>
    <path d="M377.4,166.56c.3,0,.86.09,1.21.7l38.23,66.21c.35.61.15,1.14,0,1.4-.15.26-.51.7-1.21.7h-76.46c-.7,0-1.06-.44-1.21-.7-.15-.26-.35-.79,0-1.4l38.23-66.21c.35-.61.91-.7,1.21-.7M377.4,163.56c-1.48,0-2.96.73-3.81,2.2l-38.23,66.21c-1.69,2.93.42,6.6,3.81,6.6h76.46c3.38,0,5.5-3.66,3.81-6.6l-38.23-66.21c-.85-1.47-2.33-2.2-3.81-2.2h0Z"/>
    <g>
      <line class="st0" x1="377.57" y1="183.27" x2="377.57" y2="218.44"/>
      <line class="st0" x1="377.57" y1="221.33" x2="377.57" y2="230.32"/>
    </g>
  </g>
  <g>
    <g>
      <polyline class="st0" points="36.96 23.94 44.47 31.45 42.53 42.53 31.45 44.47 23.94 36.96"/>
      <polyline class="st0" points="63.04 76.06 55.53 68.55 57.47 57.47 68.55 55.53 76.06 63.04"/>
      <line class="st0" x1="42.53" y1="42.53" x2="57.47" y2="57.47"/>
    </g>
    <path d="M69.92,15.5l19.92,34.5-19.92,34.5H30.08L10.16,50,30.08,15.5h39.84M71.65,12.5H28.35L6.7,50l21.65,37.5h43.3l21.65-37.5-21.65-37.5h0Z"/>
  </g>
</svg>