<?xml version="1.0" encoding="UTF-8"?>
<svg id="Layer_1" xmlns="http://www.w3.org/2000/svg" version="1.1" viewBox="0 0 100 100">
  <!-- Generator: Adobe Illustrator 29.7.0, SVG Export Plug-In . SVG Version: 2.1.1 Build 138)  -->
  <defs>
    <style>
      .st0 {
        fill: none;
        stroke: #000;
        stroke-linejoin: round;
        stroke-width: 5px;
      }
    </style>
  </defs>
  <g>
    <path d="M50,10c22.06,0,40,17.94,40,40s-17.94,40-40,40S10,72.05,10,50,27.94,10,50,10M50,5C25.15,5,5,25.14,5,50s20.15,45,45,45,45-20.15,45-45S74.85,5,50,5h0Z"/>
    <polyline class="st0" points="50 24.82 50 50.73 68.43 68.95"/>
  </g>
  <g>
    <path d="M89,124.41c.55,0,1,.45,1,1v75.84c0,.55-.45,1-1,1H11c-.55,0-1-.45-1-1v-75.84c0-.55.45-1,1-1h78M89,119.41H11c-3.31,0-6,2.69-6,6v75.84c0,3.31,2.69,6,6,6h78c3.31,0,6-2.69,6-6v-75.84c0-3.31-2.69-6-6-6h0Z"/>
    <polyline class="st0" points="23.61 165.38 43.28 185.41 76.39 141.26"/>
  </g>
  <g>
    <path d="M158.44,124.52l42.42,73.46h-84.84s42.42-73.46,42.42-73.46M158.44,119.41c-1.65,0-3.3.82-4.24,2.45l-42.59,73.76c-1.89,3.27.47,7.35,4.24,7.35h85.19c3.77,0,6.13-4.08,4.24-7.35l-42.59-73.76c-.94-1.63-2.59-2.45-4.24-2.45h0Z"/>
    <g>
      <line class="st0" x1="158.63" y1="144.54" x2="158.63" y2="177.23"/>
      <line class="st0" x1="158.63" y1="183.26" x2="158.63" y2="191.62"/>
    </g>
  </g>
  <g>
    <g>
      <polyline class="st0" points="147.16 27.46 153.66 33.95 151.99 43.54 142.4 45.21 135.9 38.72"/>
      <polyline class="st0" points="169.72 72.54 163.23 66.04 164.9 56.45 174.49 54.78 180.98 61.28"/>
      <line class="st0" x1="151.99" y1="43.54" x2="164.9" y2="56.45"/>
    </g>
    <path d="M179.31,13.86l20.86,36.14-20.86,36.14h-41.73l-20.86-36.14,20.86-36.14h41.73M182.19,8.86h-47.5l-23.75,41.14,23.75,41.14h47.5l23.75-41.14-23.75-41.14h0Z"/>
  </g>
</svg>