<?xml version="1.0" encoding="UTF-8"?>
<svg id="Layer_1" xmlns="http://www.w3.org/2000/svg" version="1.1" viewBox="0 0 100 100">
  <!-- Generator: Adobe Illustrator 29.7.0, SVG Export Plug-In . SVG Version: 2.1.1 Build 138)  -->
  <defs>
    <style>
      .st0 {
        fill: none;
        stroke: #000;
        stroke-linejoin: round;
        stroke-width: 5px;
      }
    </style>
  </defs>
  <g>
    <path d="M50,15.5c19.02,0,34.5,15.48,34.5,34.5s-15.48,34.5-34.5,34.5S15.5,69.02,15.5,50,30.97,15.5,50,15.5M50,12.5c-20.71,0-37.5,16.79-37.5,37.5s16.79,37.5,37.5,37.5,37.5-16.79,37.5-37.5S70.71,12.5,50,12.5h0Z"/>
    <polyline class="st0" points="50 25.56 50 51.09 68.15 69.03"/>
  </g>
  <g>
    <path d="M504.4,165.46c1.65,0,3,1.35,3,3v61.2c0,1.65-1.35,3-3,3h-63c-1.65,0-3-1.35-3-3v-61.2c0-1.65,1.35-3,3-3h63M504.4,162.46h-63c-3.31,0-6,2.69-6,6v61.2c0,3.31,2.69,6,6,6h63c3.31,0,6-2.69,6-6v-61.2c0-3.31-2.69-6-6-6h0Z"/>
    <polyline class="st0" points="448.13 200.98 466.6 219.78 497.68 178.34"/>
  </g>
  <g>
    <path d="M377.4,166.56c.3,0,.86.09,1.21.7l38.23,66.21c.35.61.15,1.14,0,1.4-.15.26-.51.7-1.21.7h-76.46c-.7,0-1.06-.44-1.21-.7-.15-.26-.35-.79,0-1.4l38.23-66.21c.35-.61.91-.7,1.21-.7M377.4,163.56c-1.48,0-2.96.73-3.81,2.2l-38.23,66.21c-1.69,2.93.42,6.6,3.81,6.6h76.46c3.38,0,5.5-3.66,3.81-6.6l-38.23-66.21c-.85-1.47-2.33-2.2-3.81-2.2h0Z"/>
    <g>
      <line class="st0" x1="377.57" y1="183.27" x2="377.57" y2="218.44"/>
      <line class="st0" x1="377.57" y1="221.33" x2="377.57" y2="230.32"/>
    </g>
  </g>
  <g>
    <g>
      <polyline class="st0" points="273.96 173.43 281.47 180.94 279.53 192.02 268.45 193.96 260.94 186.45"/>
      <polyline class="st0" points="300.04 225.55 292.53 218.04 294.47 206.96 305.55 205.02 313.06 212.53"/>
      <line class="st0" x1="279.53" y1="192.02" x2="294.47" y2="206.96"/>
    </g>
    <path d="M306.92,164.99l19.92,34.5-19.92,34.5h-39.84l-19.92-34.5,19.92-34.5h39.84M308.65,161.99h-43.3l-21.65,37.5,21.65,37.5h43.3l21.65-37.5-21.65-37.5h0Z"/>
  </g>
</svg>