<?xml version="1.0" encoding="UTF-8"?>
<svg id="Layer_1" xmlns="http://www.w3.org/2000/svg" version="1.1" viewBox="0 0 100 100">
  <!-- Generator: Adobe Illustrator 29.7.0, SVG Export Plug-In . SVG Version: 2.1.1 Build 138)  -->
  <g>
    <path d="M-172.82-111.43c17.92,0,32.5,14.58,32.5,32.5s-14.58,32.5-32.5,32.5-32.5-14.58-32.5-32.5,14.58-32.5,32.5-32.5M-172.82-116.43c-20.71,0-37.5,16.79-37.5,37.5s16.79,37.5,37.5,37.5,37.5-16.79,37.5-37.5-16.79-37.5-37.5-37.5h0Z"/>
    <path d="M-159.21-61.35l-15.36-15.18c-.48-.47-.74-1.11-.74-1.78v-21.6h5v20.56l14.62,14.45-3.51,3.56Z"/>
  </g>
  <g>
    <path d="M81.38,18.4c.55,0,1,.45,1,1v61.2c0,.55-.45,1-1,1H18.38c-.55,0-1-.45-1-1V19.4c0-.55.45-1,1-1h63M81.38,13.4H18.38c-3.31,0-6,2.69-6,6v61.2c0,3.31,2.69,6,6,6h63c3.31,0,6-2.69,6-6V19.4c0-3.31-2.69-6-6-6h0Z"/>
    <path d="M44.28,70.9c-.67,0-1.31-.27-1.78-.75l-16.4-16.69,3.57-3.5,14.36,14.62,25.85-34.46,4,3-27.59,36.79c-.44.58-1.11.95-1.83.99-.06,0-.11,0-.17,0Z"/>
  </g>
  <g>
    <path d="M-210-27.84l37.18,64.4h-74.37l37.18-64.4M-210-33.44c-1.48,0-2.96.73-3.81,2.2l-38.23,66.21c-1.69,2.93.42,6.6,3.81,6.6h76.46c3.38,0,5.5-3.66,3.81-6.6l-38.23-66.21c-.85-1.47-2.33-2.2-3.81-2.2h0Z"/>
    <g>
      <rect x="-212.33" y="-10.9" width="5" height="29.34"/>
      <rect x="-212.33" y="23.86" width="5" height="7.5"/>
    </g>
  </g>
  <g>
    <g>
      <path d="M143.51-88.44c-.66,0-1.29-.26-1.77-.73l-5.92-5.92,3.54-3.54,5,5,5.73-1,1-5.73-5-5,3.54-3.54,5.92,5.92c.58.58.83,1.4.7,2.2l-1.53,8.74c-.18,1.04-.99,1.85-2.03,2.03l-8.74,1.53c-.14.02-.29.04-.43.04Z"/>
      <path d="M166.65-64.27l-5.92-5.92c-.58-.58-.83-1.4-.7-2.2l1.53-8.74c.18-1.04.99-1.85,2.03-2.03l8.74-1.53c.8-.14,1.62.12,2.2.7l5.92,5.92-3.54,3.54-5-5-5.73,1-1,5.73,5,5-3.54,3.54Z"/>
      <rect x="155.64" y="-94.91" width="5" height="16.65" transform="translate(107.54 86.46) rotate(-45)"/>
    </g>
    <path d="M176.9-119.08l18.76,32.5-18.76,32.5h-37.53l-18.76-32.5,18.76-32.5h37.53M179.79-124.08h-43.3l-21.65,37.5,21.65,37.5h43.3l21.65-37.5-21.65-37.5h0Z"/>
  </g>
</svg>