<?xml version="1.0" encoding="UTF-8"?>
<svg id="Layer_1" xmlns="http://www.w3.org/2000/svg" version="1.1" viewBox="0 0 100 100">
  <!-- Generator: Adobe Illustrator 29.7.0, SVG Export Plug-In . SVG Version: 2.1.1 Build 138)  -->
  <defs>
    <style>
      .st0 {
        fill: none;
        stroke: #000;
        stroke-linejoin: round;
        stroke-width: 5px;
      }
    </style>
  </defs>
  <g>
    <path d="M50-103.34c22.06,0,40,17.94,40,40s-17.94,40-40,40S10-41.28,10-63.34s17.94-40,40-40M50-108.34c-24.85,0-45,20.15-45,45S25.15-18.34,50-18.34s45-20.15,45-45-20.15-45-45-45h0Z"/>
    <polyline class="st0" points="50 -88.52 50 -62.6 68.43 -44.38"/>
  </g>
  <g>
    <path d="M89,11.08c.55,0,1,.45,1,1v75.84c0,.55-.45,1-1,1H11c-.55,0-1-.45-1-1V12.08c0-.55.45-1,1-1h78M89,6.08H11c-3.31,0-6,2.69-6,6v75.84c0,3.31,2.69,6,6,6h78c3.31,0,6-2.69,6-6V12.08c0-3.31-2.69-6-6-6h0Z"/>
    <polyline class="st0" points="23.61 52.05 43.28 72.07 76.39 27.93"/>
  </g>
  <g>
    <path d="M158.44,11.18l42.42,73.46h-84.84S158.44,11.18,158.44,11.18M158.44,6.08c-1.65,0-3.3.82-4.24,2.45l-42.59,73.76c-1.89,3.27.47,7.35,4.24,7.35h85.19c3.77,0,6.13-4.08,4.24-7.35L162.69,8.53c-.94-1.63-2.59-2.45-4.24-2.45h0Z"/>
    <g>
      <line class="st0" x1="158.63" y1="31.2" x2="158.63" y2="63.89"/>
      <line class="st0" x1="158.63" y1="69.93" x2="158.63" y2="78.28"/>
    </g>
  </g>
  <g>
    <g>
      <polyline class="st0" points="147.16 -85.88 153.66 -79.38 151.99 -69.8 142.4 -68.12 135.9 -74.62"/>
      <polyline class="st0" points="169.72 -40.8 163.23 -47.29 164.9 -56.88 174.49 -58.55 180.98 -52.06"/>
      <line class="st0" x1="151.99" y1="-69.8" x2="164.9" y2="-56.88"/>
    </g>
    <path d="M179.31-99.47l20.86,36.14-20.86,36.14h-41.73l-20.86-36.14,20.86-36.14h41.73M182.19-104.47h-47.5l-23.75,41.14,23.75,41.14h47.5l23.75-41.14-23.75-41.14h0Z"/>
  </g>
</svg>