<?xml version="1.0" encoding="UTF-8"?>
<svg id="Layer_1" xmlns="http://www.w3.org/2000/svg" version="1.1" viewBox="0 0 24 24">
  <!-- Generator: Adobe Illustrator 29.7.0, SVG Export Plug-In . SVG Version: 2.1.1 Build 138)  -->
  <defs>
    <style>
      .st0 {
        fill-rule: evenodd;
      }
    </style>
  </defs>
  <path class="st0" d="M9.17,4.54h-4.96c-.19,0-.34.15-.34.34v1.89c0,.19.15.34.34.34h.81l.37,14.8c0,.18.15.33.34.33h12.1c.18,0,.33-.15.34-.33l.37-14.8h.81c.19,0,.34-.15.34-.34v-1.89c0-.19-.15-.34-.34-.34h-4.96v-.65c0-.33-.13-.65-.36-.88s-.55-.36-.88-.36h-2.73c-.33,0-.65.13-.88.36s-.36.55-.36.88v.65ZM17.86,7.11l-.36,14.46H6.05l-.36-14.46h12.17ZM9.41,10.41c0-.56-.45-1.01-1.01-1.01h-.01c-.56,0-1.01.45-1.01,1.01v8.12c0,.56.45,1.01,1.01,1.01h.01c.56,0,1.01-.45,1.01-1.01v-8.12ZM16.16,10.41c0-.56-.45-1.01-1.01-1.01h-.01c-.56,0-1.01.45-1.01,1.01v8.12c0,.56.45,1.01,1.01,1.01h.01c.56,0,1.01-.45,1.01-1.01v-8.12ZM12.79,10.41c0-.56-.45-1.01-1.01-1.01h-.01c-.56,0-1.01.45-1.01,1.01v8.12c0,.56.45,1.01,1.01,1.01h.01c.56,0,1.01-.45,1.01-1.01v-8.12ZM8.73,10.41v8.12c0,.18-.15.33-.33.33h-.01c-.18,0-.33-.15-.33-.33v-8.12c0-.18.15-.33.33-.33h.01c.18,0,.33.15.33.33ZM15.49,10.41v8.12c0,.18-.15.33-.33.33h-.01c-.18,0-.33-.15-.33-.33v-8.12c0-.18.15-.33.33-.33h.01c.18,0,.33.15.33.33ZM12.11,10.41v8.12c0,.18-.15.33-.33.33h-.01c-.18,0-.33-.15-.33-.33v-8.12c0-.18.15-.33.33-.33h.01c.18,0,.33.15.33.33ZM19,5.22v1.22H4.55v-1.22h14.46ZM13.7,3.89v.65h-3.86v-.65c0-.15.06-.29.17-.4.11-.11.25-.17.4-.17h2.73c.15,0,.29.06.4.17.11.11.17.25.17.4h0Z"/>
</svg>